<svg xmlns="http://www.w3.org/2000/svg" width="43" height="39" viewBox="0 0 43 39" fill="none">
<g opacity="0.4">
<path d="M6.71875 8.53125C5.97864 8.53125 5.375 9.07874 5.375 9.75C5.375 10.4213 5.97864 10.9688 6.71875 10.9688H9.7002L13.2275 23.7656C13.5267 24.8511 14.5975 25.5938 15.8311 25.5938H31.2422C32.4547 25.5938 33.4835 24.8654 33.8037 23.8037L37.2891 12.1875H14.7812L15.4531 14.625H33.8037L31.2422 23.1562H15.8311L12.3037 10.3594C12.0045 9.27393 10.9337 8.53125 9.7002 8.53125H6.71875ZM29.5625 25.5938C27.3527 25.5938 25.5312 27.2457 25.5312 29.25C25.5312 31.2543 27.3527 32.9062 29.5625 32.9062C31.7723 32.9062 33.5938 31.2543 33.5938 29.25C33.5938 27.2457 31.7723 25.5938 29.5625 25.5938ZM17.4688 25.5938C15.2589 25.5938 13.4375 27.2457 13.4375 29.25C13.4375 31.2543 15.2589 32.9062 17.4688 32.9062C19.6786 32.9062 21.5 31.2543 21.5 29.25C21.5 27.2457 19.6786 25.5938 17.4688 25.5938ZM17.4688 28.0312C18.2246 28.0312 18.8125 28.5645 18.8125 29.25C18.8125 29.9355 18.2246 30.4688 17.4688 30.4688C16.7129 30.4688 16.125 29.9355 16.125 29.25C16.125 28.5645 16.7129 28.0312 17.4688 28.0312ZM29.5625 28.0312C30.3184 28.0312 30.9062 28.5645 30.9062 29.25C30.9062 29.9355 30.3184 30.4688 29.5625 30.4688C28.8066 30.4688 28.2188 29.9355 28.2188 29.25C28.2188 28.5645 28.8066 28.0312 29.5625 28.0312Z" fill="black"/>
</g>
</svg>