<svg width="57" height="73" viewBox="0 0 57 73" fill="none" xmlns="http://www.w3.org/2000/svg">
<path d="M16.25 10.9688C10.3463 10.9688 5.53125 14.8011 5.53125 19.5C5.53125 24.1989 10.3463 28.0312 16.25 28.0312H40.75C46.6537 28.0312 51.4688 24.1989 51.4688 19.5C51.4688 14.8011 46.6537 10.9688 40.75 10.9688C34.8463 10.9688 30.0312 14.8011 30.0312 19.5C30.0312 21.8851 31.2874 24.0417 33.2852 25.5938H23.7148C25.7126 24.0417 26.9688 21.8851 26.9688 19.5C26.9688 14.8011 22.1537 10.9688 16.25 10.9688ZM16.25 13.4062C20.4968 13.4062 23.9062 16.1199 23.9062 19.5C23.9062 22.8801 20.4968 25.5938 16.25 25.5938C12.0032 25.5938 8.59375 22.8801 8.59375 19.5C8.59375 16.1199 12.0032 13.4062 16.25 13.4062ZM40.75 13.4062C44.9968 13.4062 48.4062 16.1199 48.4062 19.5C48.4062 22.8801 44.9968 25.5938 40.75 25.5938C36.5032 25.5938 33.0938 22.8801 33.0938 19.5C33.0938 16.1199 36.5032 13.4062 40.75 13.4062Z" fill="white"/>
<path d="M3.3196 27L9.95881 39.2497H0V43.3329H12.1449L14.331 47.4161H0V51.4993H16.598L28.1761 73L40.0781 51.4993H57V47.4161H42.3452L44.6122 43.3329H57V39.2497H46.8793L53.6804 27H48.0128L36.6776 47.4161H19.9986L8.90625 27H3.3196ZM22.1847 51.4993H34.4105L28.2571 62.6644L22.1847 51.4993Z" fill="white"/>
<path d="M16.7477 29.9H21.2457C21.4277 29.9 21.5794 29.9607 21.7007 30.082C21.8307 30.2033 21.8957 30.355 21.8957 30.537C21.8957 30.719 21.8307 30.8663 21.7007 30.979C21.5794 31.0917 21.4277 31.148 21.2457 31.148H17.3197L17.4497 30.927V33.839L17.3327 33.709H20.6607C20.8427 33.709 20.9944 33.7697 21.1157 33.891C21.2457 34.0123 21.3107 34.1683 21.3107 34.359C21.3107 34.541 21.2457 34.6883 21.1157 34.801C20.9944 34.9137 20.8427 34.97 20.6607 34.97H17.3587L17.4497 34.853V37.856L17.3587 37.752H21.2457C21.4277 37.752 21.5794 37.817 21.7007 37.947C21.8307 38.0683 21.8957 38.2113 21.8957 38.376C21.8957 38.558 21.8307 38.7097 21.7007 38.831C21.5794 38.9437 21.4277 39 21.2457 39H16.7477C16.5657 39 16.4097 38.9393 16.2797 38.818C16.1497 38.688 16.0847 38.5277 16.0847 38.337V30.563C16.0847 30.3723 16.1497 30.2163 16.2797 30.095C16.4097 29.965 16.5657 29.9 16.7477 29.9ZM27.3465 29.9C27.9792 29.9 28.5382 30.0213 29.0235 30.264C29.5088 30.498 29.9118 30.8273 30.2325 31.252C30.5618 31.668 30.8088 32.1533 30.9735 32.708C31.1382 33.254 31.2205 33.8347 31.2205 34.45C31.2205 35.2907 31.0732 36.0577 30.7785 36.751C30.4838 37.4357 30.0505 37.9817 29.4785 38.389C28.9065 38.7963 28.1958 39 27.3465 39H24.1745C23.9925 39 23.8365 38.9393 23.7065 38.818C23.5765 38.688 23.5115 38.5277 23.5115 38.337V30.563C23.5115 30.3723 23.5765 30.2163 23.7065 30.095C23.8365 29.965 23.9925 29.9 24.1745 29.9H27.3465ZM27.2165 37.752C27.8318 37.752 28.3302 37.6003 28.7115 37.297C29.0928 36.9937 29.3702 36.595 29.5435 36.101C29.7255 35.5983 29.8165 35.048 29.8165 34.45C29.8165 34.008 29.7645 33.592 29.6605 33.202C29.5652 32.8033 29.4092 32.4523 29.1925 32.149C28.9845 31.837 28.7158 31.5943 28.3865 31.421C28.0658 31.239 27.6758 31.148 27.2165 31.148H24.7595L24.8765 31.031V37.882L24.7985 37.752H27.2165ZM39.2782 29.887C39.4688 29.887 39.6205 29.952 39.7332 30.082C39.8458 30.2033 39.9022 30.3593 39.9022 30.55V35.477C39.9022 36.1703 39.7505 36.79 39.4472 37.336C39.1438 37.882 38.7278 38.311 38.1992 38.623C37.6705 38.9263 37.0595 39.078 36.3662 39.078C35.6815 39.078 35.0705 38.9263 34.5332 38.623C34.0045 38.311 33.5842 37.882 33.2722 37.336C32.9688 36.79 32.8172 36.1703 32.8172 35.477V30.55C32.8172 30.3593 32.8822 30.2033 33.0122 30.082C33.1422 29.952 33.3112 29.887 33.5192 29.887C33.6838 29.887 33.8312 29.952 33.9612 30.082C34.0998 30.2033 34.1692 30.3593 34.1692 30.55V35.477C34.1692 35.9363 34.2688 36.3393 34.4682 36.686C34.6762 37.024 34.9492 37.2927 35.2872 37.492C35.6252 37.6827 35.9848 37.778 36.3662 37.778C36.7822 37.778 37.1635 37.6827 37.5102 37.492C37.8568 37.2927 38.1342 37.024 38.3422 36.686C38.5588 36.3393 38.6672 35.9363 38.6672 35.477V30.55C38.6672 30.3593 38.7192 30.2033 38.8232 30.082C38.9358 29.952 39.0875 29.887 39.2782 29.887Z" fill="white"/>
</svg>
