<svg xmlns="http://www.w3.org/2000/svg" width="29" height="29" viewBox="0 0 29 29" fill="none">
  <path d="M14.5928 12.0525V17.4743H22.1273C21.7964 19.218 20.8036 20.6944 19.3145 21.6871L23.8581 25.2126C26.5054 22.769 28.0327 19.1799 28.0327 14.9163C28.0327 13.9236 27.9436 12.9689 27.7781 12.0526L14.5928 12.0525Z" fill="#4285F4"/>
  <path d="M6.74675 17.2627L5.722 18.0471L2.09467 20.8725C4.3983 25.4416 9.11976 28.598 14.5924 28.598C18.3724 28.598 21.5414 27.3507 23.8578 25.2126L19.3142 21.6871C18.0669 22.5271 16.476 23.0362 14.5924 23.0362C10.9525 23.0362 7.85983 20.5799 6.75248 17.2708L6.74675 17.2627Z" fill="#34A853"/>
  <path d="M2.09467 8.32345C1.14018 10.207 0.592964 12.3325 0.592964 14.5979C0.592964 16.8633 1.14018 18.9888 2.09467 20.8724C2.09467 20.885 6.75293 17.2578 6.75293 17.2578C6.47294 16.4178 6.30744 15.527 6.30744 14.5978C6.30744 13.6685 6.47294 12.7777 6.75293 11.9377L2.09467 8.32345Z" fill="#FBBC05"/>
  <path d="M14.5927 6.17253C16.6546 6.17253 18.4873 6.88524 19.9509 8.25981L23.96 4.25077C21.529 1.98535 18.3728 0.597992 14.5927 0.597992C9.12005 0.597992 4.3983 3.74162 2.09467 8.32346L6.75278 11.938C7.85999 8.62888 10.9528 6.17253 14.5927 6.17253Z" fill="#EA4335"/>
</svg>